<mxfile host="app.diagrams.net" modified="2024-05-08T11:57:32.251Z" agent="Mozilla/5.0 (Windows NT 10.0; Win64; x64) AppleWebKit/537.36 (KHTML, like Gecko) Chrome/121.0.0.0 Safari/537.36 OPR/107.0.0.0" version="24.2.5" etag="7XIO2teOWU8CvO1YAUWN" type="github">
  <diagram name="PÃ¡gina-1" id="aQY0_U1L2T85wBusTAeL">
    <mxGraphModel>
      <root>
        <mxCell id="0" />
        <mxCell id="1" parent="0" />
      </root>
    </mxGraphModel>
  </diagram>
</mxfile>
